<svg width="24" height="24" viewBox="0 0 24 24" fill="none" xmlns="http://www.w3.org/2000/svg">
<path fill-rule="evenodd" clip-rule="evenodd" d="M6.20331 17.413L6.06079 17.3989C4.62351 17.2559 3.5 16.0408 3.5 14.5652C3.5 12.9924 4.77502 11.7174 6.34783 11.7174L7.75478 11.7201L7.86042 10.3312C8.02339 8.18876 9.81541 6.5 12.0004 6.5C13.7306 6.5 15.217 7.5586 15.8406 9.06922L16.1897 9.91484L17.1013 9.99156C19.005 10.1518 20.5011 11.7498 20.5011 13.6957C20.5011 15.7487 18.8368 17.413 16.7837 17.413L16.7758 17.413H6.20331ZM2 14.5652C2 12.164 3.94659 10.2174 6.34783 10.2174L6.36474 10.2174C6.58674 7.29895 9.02512 5 12.0004 5C14.3588 5 16.3799 6.44441 17.2271 8.49684C19.9011 8.72188 22.0011 10.9635 22.0011 13.6957C22.0011 16.5771 19.6652 18.913 16.7837 18.913L16.7727 18.913H5.91235V18.8915C3.71559 18.673 2 16.8195 2 14.5652ZM8.95703 12.3896L12.0005 16.3027L15.044 12.3896H13.6393L12.8784 12.3896V8.47656H11.1226V12.3896H8.95703Z" fill="currentColor"/>
</svg>
